<?xml version="1.0" standalone="no"?>
<!DOCTYPE svg PUBLIC "-//W3C//DTD SVG 20010904//EN"
 "http://www.w3.org/TR/2001/REC-SVG-20010904/DTD/svg10.dtd">
<svg version="1.0" xmlns="http://www.w3.org/2000/svg"
 width="700.000000pt" height="700.000000pt" viewBox="0 0 700.000000 700.000000"
 preserveAspectRatio="xMidYMid meet">
<metadata>
Created by potrace 1.14, written by Peter Selinger 2001-2017
</metadata>
<g transform="translate(0.000000,700.000000) scale(0.100000,-0.100000)"
fill="#000000" stroke="none">
<path d="M3525 6363 c-67 -14 -121 -60 -182 -151 -98 -148 -191 -427 -188
-562 2 -64 15 -120 29 -121 39 -4 186 -9 421 -13 336 -6 409 5 452 70 16 25
15 28 -11 82 -15 31 -70 128 -122 214 -52 87 -94 160 -94 163 0 2 -23 51 -50
108 -79 161 -163 230 -255 210z"/>
<path d="M5268 5934 c-2 -1 -19 -4 -38 -7 -59 -8 -190 -45 -280 -77 -47 -18
-98 -37 -115 -43 -33 -12 -142 -68 -184 -95 -76 -49 -118 -93 -125 -132 -3
-19 -8 -42 -10 -50 -4 -18 21 -70 33 -70 11 0 145 -107 276 -220 55 -47 127
-104 160 -127 33 -22 73 -52 89 -66 33 -29 48 -26 91 13 17 16 46 36 65 46 99
53 130 99 168 254 39 157 46 314 22 455 -18 103 -37 126 -101 124 -27 -1 -50
-3 -51 -5z"/>
<path d="M1759 5551 c-96 -30 -132 -118 -94 -228 30 -87 214 -451 258 -509 42
-58 75 -88 139 -128 l26 -17 231 228 c231 229 262 268 256 324 -7 62 -48 101
-180 170 -139 72 -219 104 -338 133 -109 27 -255 40 -298 27z"/>
<path d="M3580 5023 c-33 -3 -168 -25 -235 -38 -121 -24 -326 -115 -472 -210
-151 -99 -240 -173 -423 -355 -152 -151 -185 -189 -237 -266 -75 -110 -100
-173 -107 -275 -3 -36 -8 -72 -10 -80 -3 -8 -8 -26 -11 -41 -3 -16 -7 -40 -10
-55 -74 -380 -98 -799 -59 -1053 22 -143 80 -316 139 -414 19 -32 35 -60 35
-63 0 -23 157 -186 237 -244 160 -119 430 -227 653 -263 19 -3 46 -8 60 -10
14 -2 46 -7 71 -10 25 -4 57 -8 70 -11 29 -4 151 -13 324 -22 173 -9 523 -10
610 -1 339 35 653 177 869 394 191 192 308 434 361 749 30 183 25 518 -10 705
-3 14 -8 41 -11 60 -3 19 -12 64 -20 100 -9 36 -17 72 -19 80 -95 438 -357
824 -716 1057 -197 127 -479 228 -724 259 -56 7 -311 12 -365 7z"/>
<path d="M6218 4635 c-8 -7 -156 -18 -270 -20 -115 -2 -132 -5 -182 -29 -53
-26 -73 -51 -68 -86 2 -9 -11 -26 -28 -38 -39 -29 -39 -56 4 -146 44 -91 76
-164 76 -171 0 -7 82 -173 126 -255 78 -144 150 -171 251 -94 34 26 181 241
266 389 87 153 149 343 126 388 -15 28 -25 34 -74 48 -34 10 -219 21 -227 14z"/>
<path d="M1325 4043 c-49 -7 -123 -31 -255 -82 -69 -27 -163 -61 -210 -76
-187 -58 -247 -114 -220 -210 20 -70 103 -153 277 -274 11 -7 77 -53 147 -102
142 -98 211 -129 290 -129 120 0 171 81 191 305 11 118 15 156 19 183 3 15 7
52 11 83 3 31 8 67 10 80 3 13 8 52 11 86 6 60 6 61 -22 76 -16 8 -39 13 -51
11 -13 -2 -23 0 -23 5 0 12 -76 42 -114 45 -17 1 -44 1 -61 -1z"/>
<path d="M6267 2915 c-34 -22 -35 -22 -51 -4 -18 22 -64 25 -89 7 -10 -8 -21
-36 -26 -68 -27 -159 -37 -196 -95 -343 -69 -177 -71 -261 -7 -330 65 -71 135
-87 451 -102 113 -6 125 -8 182 -32 64 -27 104 -4 112 67 6 50 -22 205 -53
300 -62 183 -162 346 -280 457 -74 70 -100 79 -144 48z"/>
<path d="M1344 2489 c-54 -26 -111 -93 -163 -191 -24 -46 -76 -132 -117 -193
-169 -253 -188 -391 -66 -462 40 -24 57 -27 151 -29 176 -5 261 19 428 118 59
36 123 71 141 78 37 14 75 67 86 118 9 37 -15 81 -144 267 -42 61 -105 155
-140 211 -63 97 -66 101 -101 101 -20 0 -54 -8 -75 -18z"/>
<path d="M5580 1806 c-75 -27 -136 -77 -246 -202 -102 -114 -111 -127 -144
-198 -26 -55 -31 -74 -24 -95 13 -37 184 -183 288 -245 116 -70 207 -99 305
-99 66 0 76 2 94 24 17 21 19 35 14 109 -3 47 -15 132 -26 189 -14 67 -23 157
-26 252 -4 171 -20 224 -77 259 -38 23 -105 26 -158 6z"/>
<path d="M2306 1445 c-13 -7 -29 -37 -45 -85 -24 -73 -25 -83 -25 -345 1 -377
10 -499 46 -588 21 -53 80 -47 218 23 335 167 542 362 557 524 12 130 -53 193
-312 303 -57 24 -154 72 -216 108 -62 36 -118 65 -123 66 -58 4 -83 3 -100 -6z"/>
<path d="M4355 1074 c-38 -8 -113 -13 -165 -13 -249 4 -379 0 -399 -10 -12 -7
-28 -26 -36 -44 -9 -18 -23 -44 -32 -58 -16 -25 -16 -29 1 -72 23 -60 84 -154
160 -247 34 -41 73 -91 86 -110 28 -40 23 -34 96 -127 120 -154 241 -186 347
-93 45 40 132 195 206 369 72 171 74 300 4 363 -52 48 -155 64 -268 42z"/>
</g>
</svg>
